<?xml version="1.0" standalone="no"?>
<!DOCTYPE svg PUBLIC "-//W3C//DTD SVG 20010904//EN"
 "http://www.w3.org/TR/2001/REC-SVG-20010904/DTD/svg10.dtd">
<svg version="1.0" xmlns="http://www.w3.org/2000/svg"
 width="153.000000pt" height="180.000000pt" viewBox="0 0 153.000000 180.000000"
 preserveAspectRatio="xMidYMid meet">

<g transform="translate(0.000000,180.000000) scale(0.100000,-0.100000)"
fill="#000000" stroke="none">
<path d="M0 900 l0 -900 765 0 765 0 0 900 0 900 -765 0 -765 0 0 -900z m1188
477 c2 -9 -2 -17 -8 -17 -7 0 -10 7 -7 14 4 11 1 13 -10 9 -11 -4 -14 -3 -9 6
10 16 30 9 34 -12z m-1043 4 c7 -12 -12 -24 -25 -16 -11 7 -4 25 10 25 5 0 11
-4 15 -9z m95 -7 c0 -8 -4 -12 -10 -9 -5 3 -10 10 -10 16 0 5 5 9 10 9 6 0 10
-7 10 -16z m50 1 c0 -8 -2 -15 -4 -15 -2 0 -6 7 -10 15 -3 8 -1 15 4 15 6 0
10 -7 10 -15z m50 11 c0 -3 -4 -8 -10 -11 -5 -3 -10 -1 -10 4 0 6 5 11 10 11
6 0 10 -2 10 -4z m568 -3 c-86 -2 -230 -2 -320 0 -90 1 -19 3 157 3 176 0 249
-2 163 -3z m507 -2 c7 -12 -12 -24 -25 -16 -11 7 -4 25 10 25 5 0 11 -4 15 -9z
m-1283 -463 c-1 -218 -6 -366 -12 -372 -7 -7 -10 120 -10 362 0 291 3 372 13
372 9 0 11 -78 9 -362z m130 330 l3 -33 148 -3 c112 -2 147 -6 144 -15 -2 -7
-31 -14 -73 -17 -52 -4 -69 -9 -69 -20 0 -11 17 -16 70 -20 45 -3 71 -10 72
-17 2 -10 -35 -13 -162 -13 -138 0 -165 2 -165 15 0 11 16 15 67 17 55 2 68 6
71 21 3 15 -5 17 -67 17 l-71 0 0 50 c0 37 4 50 14 50 9 0 16 -12 18 -32z
m658 12 c0 -19 -7 -20 -145 -20 l-146 0 3 -77 3 -78 143 -3 c115 -2 142 -5
142 -17 0 -10 -17 -15 -67 -17 -55 -2 -68 -6 -71 -20 -3 -16 5 -18 67 -18 56
0 71 -3 71 -15 0 -13 -25 -15 -166 -15 -128 0 -165 3 -162 13 3 7 28 13 69 15
82 3 95 8 79 27 -7 9 -35 15 -77 17 l-65 3 1 103 c0 56 0 107 1 112 0 6 60 10
160 10 153 0 160 -1 160 -20z m274 10 c20 -7 26 -17 26 -39 0 -51 -21 -61
-121 -61 -50 0 -99 5 -110 10 -25 14 -26 75 -1 89 22 13 173 14 206 1z m96
-110 l0 -120 -45 0 c-51 0 -66 26 -17 32 16 2 27 9 27 18 0 12 -17 15 -90 15
l-90 0 -3 -32 c-2 -20 -9 -33 -17 -33 -8 0 -15 13 -17 33 -3 28 -7 32 -35 35
-20 2 -33 9 -33 17 0 12 28 15 143 17 l142 3 3 68 c2 51 6 67 17 67 12 0 15
-22 15 -120z m130 -250 c0 -240 -4 -370 -10 -370 -6 0 -10 130 -10 370 0 240
4 370 10 370 6 0 10 -130 10 -370z m-880 150 c26 -26 25 -55 -2 -74 -17 -12
-50 -16 -146 -16 -68 0 -132 5 -143 10 -13 8 -19 21 -19 46 0 47 18 53 168 53
109 1 124 -1 142 -19z m462 -12 l3 -33 143 -3 c117 -2 142 -5 142 -17 0 -13
-26 -15 -160 -15 l-160 0 0 50 c0 37 4 50 14 50 9 0 16 -12 18 -32z m-448
-163 l-1 -50 -69 -5 c-52 -4 -69 -9 -69 -20 0 -12 16 -16 73 -18 55 -2 72 -6
72 -17 0 -13 -27 -15 -165 -15 -140 0 -165 2 -165 15 0 12 14 15 68 15 74 0
88 5 71 27 -7 8 -34 13 -75 13 l-64 0 0 55 0 55 162 -2 163 -3 -1 -50z m676
40 c0 -10 -15 -15 -57 -17 l-58 -3 -3 -47 -3 -47 58 -3 c44 -2 58 -7 58 -18 0
-20 -80 -26 -112 -9 -18 10 -26 10 -35 1 -7 -7 -34 -12 -60 -12 -41 0 -48 3
-48 19 0 17 8 20 53 23 l52 3 0 45 0 45 -52 3 c-38 2 -53 7 -53 18 0 11 23 14
130 14 107 0 130 -3 130 -15z m60 -21 c0 -27 5 -37 20 -41 11 -3 20 -11 20
-18 0 -7 -9 -15 -20 -18 -15 -4 -20 -14 -20 -36 0 -21 -5 -31 -15 -31 -12 0
-15 17 -15 90 0 73 3 90 15 90 11 0 15 -11 15 -36z m-515 -4 c10 -11 24 -20
31 -20 24 0 74 -35 74 -53 0 -10 12 -22 28 -28 15 -6 22 -13 15 -16 -7 -2 -20
0 -31 6 -22 12 -44 -3 -35 -25 3 -8 0 -14 -6 -14 -6 0 -11 -6 -11 -14 0 -7 -9
-25 -20 -39 -11 -14 -20 -32 -20 -41 0 -30 -17 -16 -29 24 -8 26 -18 40 -29
40 -13 1 -10 6 11 21 18 14 27 30 27 47 l-1 27 -15 -27 c-19 -37 -73 -66 -85
-46 -6 9 -9 6 -9 -11 0 -20 4 -22 24 -17 14 3 27 3 29 -1 8 -13 -74 -15 -89
-2 -24 20 -17 49 11 49 18 0 32 11 50 40 18 28 29 38 42 33 14 -6 14 -7 -4
-14 -11 -4 -23 -14 -26 -22 -5 -13 -2 -13 24 0 35 17 45 31 27 38 -9 4 -13 17
-10 40 5 39 -5 44 -43 19 -31 -20 -32 -34 -3 -34 21 0 21 0 2 -14 -14 -11 -20
-11 -23 -3 -2 7 -10 16 -17 20 -19 11 -18 28 1 21 8 -4 15 -2 15 3 0 12 38 31
61 32 9 1 24 -8 34 -19z m-138 -7 c-4 -3 -1 -13 7 -22 7 -9 17 -27 21 -41 7
-23 7 -24 -16 -9 -12 9 -27 23 -33 31 -11 18 -2 48 15 48 7 0 9 -3 6 -7z m637
-166 c21 -15 25 -62 7 -80 -16 -16 -247 -22 -283 -8 -23 9 -28 17 -28 45 0 23
6 39 18 45 27 16 264 14 286 -2z m-728 -8 c4 -7 8 -27 9 -45 2 -27 -2 -34 -17
-34 -13 0 -18 7 -18 25 l0 25 -145 0 c-138 0 -145 1 -145 20 0 19 7 20 154 20
105 0 157 -4 162 -11z m-240 -175 c-5 -13 -10 -14 -18 -6 -6 6 -8 18 -4 28 5
13 10 14 18 6 6 -6 8 -18 4 -28z m100 21 c-3 -8 -1 -15 5 -15 6 0 7 -5 3 -11
-10 -16 -28 6 -21 25 4 9 9 16 13 16 3 0 4 -7 0 -15z m63 -22 c-14 -17 -31 1
-22 24 4 10 9 11 19 2 11 -9 12 -15 3 -26z m57 2 c-5 -14 -9 -15 -21 -5 -12
10 -13 16 -4 27 15 18 34 1 25 -22z m110 0 c-5 -14 -9 -15 -21 -5 -12 10 -13
16 -4 27 15 18 34 1 25 -22z m153 14 c-11 -7 -11 -9 -1 -9 7 0 10 -5 6 -11
-10 -16 -28 6 -20 26 3 9 11 13 17 9 8 -4 7 -9 -2 -15z m117 -4 c1 -8 -2 -17
-7 -21 -5 -3 -9 7 -9 22 0 27 12 26 16 -1z m57 0 c-3 -8 -9 -15 -14 -15 -10 0
-12 24 -3 33 11 11 24 -3 17 -18z m160 5 c-6 -21 -25 -28 -20 -7 2 10 16 26
24 27 0 0 -1 -9 -4 -20z m117 -6 c0 -8 -7 -14 -15 -14 -15 0 -21 21 -9 33 10
9 24 -2 24 -19z m-992 -2 c6 -18 -15 -14 -22 4 -4 10 -1 14 6 12 6 -2 14 -10
16 -16z m112 3 c0 -8 -4 -15 -9 -15 -5 0 -11 7 -15 15 -3 9 0 15 9 15 8 0 15
-7 15 -15z m223 -3 c-6 -14 -25 -12 -30 4 -2 5 5 10 16 10 11 0 17 -5 14 -14z
m107 -3 c0 -5 -7 -9 -15 -9 -8 0 -15 7 -15 15 0 9 6 12 15 9 8 -4 15 -10 15
-15z m168 3 c2 -7 -3 -12 -12 -12 -9 0 -16 7 -16 16 0 17 22 14 28 -4z m156 3
c-4 -8 -7 -15 -9 -15 -2 0 -5 7 -9 15 -3 9 0 15 9 15 9 0 12 -6 9 -15z m170 0
c3 -9 0 -15 -9 -15 -8 0 -15 7 -15 15 0 8 4 15 9 15 5 0 11 -7 15 -15z m113 2
c0 -8 -6 -14 -14 -14 -7 0 -13 6 -13 14 0 7 6 13 13 13 8 0 14 -6 14 -13z
m-1152 -106 c7 -12 -12 -24 -25 -16 -11 7 -4 25 10 25 5 0 11 -4 15 -9z m1270
0 c7 -12 -12 -24 -25 -16 -11 7 -4 25 10 25 5 0 11 -4 15 -9z m-372 -18 c-149
-2 -397 -2 -550 0 -153 1 -30 2 272 2 303 0 428 -1 278 -2z"/>
<path d="M1000 1225 c0 -12 17 -15 90 -15 73 0 90 3 90 15 0 12 -17 15 -90 15
-73 0 -90 -3 -90 -15z"/>
<path d="M267 1034 c-18 -18 15 -24 129 -24 104 0 124 2 124 15 0 13 -20 15
-123 15 -68 0 -127 -3 -130 -6z"/>
<path d="M263 895 c-11 -30 12 -36 133 -33 111 3 119 4 119 23 0 19 -8 20
-123 23 -105 2 -123 0 -129 -13z"/>
<path d="M780 835 c0 -6 17 -9 42 -7 35 4 40 2 35 -12 -4 -9 -2 -16 4 -16 6 0
9 10 7 23 -3 19 -9 22 -45 22 -24 0 -43 -4 -43 -10z"/>
<path d="M808 793 c6 -2 18 -2 25 0 6 3 1 5 -13 5 -14 0 -19 -2 -12 -5z"/>
<path d="M800 735 c-7 -9 -10 -18 -7 -21 3 -3 10 4 17 15 13 25 8 27 -10 6z"/>
<path d="M1003 688 c3 -10 37 -13 127 -13 90 0 124 3 128 13 3 9 -27 12 -128
12 -101 0 -131 -3 -127 -12z"/>
</g>
</svg>
